<svg width="33" height="33" viewBox="0 0 33 33" fill="none" xmlns="http://www.w3.org/2000/svg">
<mask id="mask0_3310_1395" style="mask-type:alpha" maskUnits="userSpaceOnUse" x="2" y="2" width="28" height="28">
<path d="M14.5468 2.48502C15.2464 2.12423 16.0774 2.12423 16.777 2.48502L27.9077 8.22502C28.717 8.64238 29.2255 9.47675 29.2255 10.3873V21.4111C29.2255 22.3217 28.717 23.1561 27.9077 23.5735L16.777 29.3135C16.0774 29.6743 15.2464 29.6743 14.5468 29.3135L3.41612 23.5735C2.6068 23.1561 2.0983 22.3217 2.0983 21.4111V10.3873C2.0983 9.47675 2.6068 8.64238 3.41612 8.22502L14.5468 2.48502Z" fill="#D9D9D9"/>
</mask>
<g mask="url(#mask0_3310_1395)">
<path d="M16.1961 2.25679C15.7648 2.03876 15.2555 2.03876 14.8242 2.25679L1.82501 8.8278L15.5102 15.7456L29.1953 8.8278L16.1961 2.25679Z" fill="#F9A682"/>
<path d="M1.82501 8.8278V21.9912C1.82501 22.5843 2.16986 23.1233 2.70837 23.3718L15.5102 29.2803V15.7456L1.82501 8.8278Z" fill="#BAE3E2"/>
<path d="M15.5102 15.7456V29.2803L28.3119 23.3718C28.8505 23.1233 29.1953 22.5843 29.1953 21.9912V8.8278L15.5102 15.7456Z" fill="#30B3AB"/>
</g>
</svg>
