<svg width="150" height="33" viewBox="0 0 150 33" fill="none" xmlns="http://www.w3.org/2000/svg">
<mask id="mask0_3310_1393" style="mask-type:alpha" maskUnits="userSpaceOnUse" x="2" y="2" width="28" height="29">
<path d="M14.6347 3.22489C15.3343 2.8641 16.1653 2.8641 16.8649 3.22489L27.9956 8.96489C28.8049 9.38225 29.3134 10.2166 29.3134 11.1272V22.151C29.3134 23.0616 28.8049 23.896 27.9956 24.3133L16.8649 30.0533C16.1653 30.4141 15.3343 30.4141 14.6347 30.0533L3.50401 24.3133C2.69469 23.896 2.18619 23.0616 2.18619 22.151V11.1272C2.18619 10.2166 2.69469 9.38225 3.50401 8.96489L14.6347 3.22489Z" fill="#D9D9D9"/>
</mask>
<g mask="url(#mask0_3310_1393)">
<path d="M16.284 2.99666C15.8527 2.77863 15.3434 2.77863 14.9121 2.99666L1.9129 9.56767L15.5981 16.4854L29.2832 9.56767L16.284 2.99666Z" fill="#F9A682"/>
<path d="M1.9129 9.56767V22.7311C1.9129 23.3242 2.25775 23.8631 2.79626 24.1117L15.5981 30.0202V16.4854L1.9129 9.56767Z" fill="#BAE3E2"/>
<path d="M15.5981 16.4854V30.0202L28.3998 24.1117C28.9383 23.8631 29.2832 23.3242 29.2832 22.7311V9.56767L15.5981 16.4854Z" fill="#30B3AB"/>
</g>
<circle cx="146.831" cy="23.8275" r="2.7392" fill="#F9A682"/>
</svg>
